HIERARCHY
ROOT reference
{
  OFFSET 0 0 0
  CHANNELS 6 Xposition Yposition Zposition Zrotation Xrotation Yrotation
  JOINT Hips
  {
    OFFSET 366.965 89.8555 201.872
    CHANNELS 3 Zrotation Xrotation Yrotation
    JOINT RightUpLeg
    {
      OFFSET -9.27238 -1.56811 0.0123499
      CHANNELS 3 Zrotation Xrotation Yrotation
      JOINT RightLeg
      {
        OFFSET 0.00682797 -41.8882 0.0419786
        CHANNELS 3 Zrotation Xrotation Yrotation
        JOINT RightFoot
        {
          OFFSET 0.530869 -42.1265 0.242224
          CHANNELS 3 Zrotation Xrotation Yrotation
          End Site
          {
            OFFSET 0 -7.69 17.5
          }
        }
      }
    }
    JOINT LeftUpLeg
    {
      OFFSET 9.28391 -1.61639 -0.0258413
      CHANNELS 3 Zrotation Xrotation Yrotation
      JOINT LeftLeg
      {
        OFFSET 0.0291166 -41.8727 -0.014263
        CHANNELS 3 Zrotation Xrotation Yrotation
        JOINT LeftFoot
        {
          OFFSET -0.125672 -41.4933 -0.195947
          CHANNELS 3 Zrotation Xrotation Yrotation
          End Site
          {
            OFFSET 0 -7.69 17.5
          }
        }
      }
    }
    JOINT Spine
    {
      OFFSET 0.0325614 14.2957 0.0242834
      CHANNELS 3 Zrotation Xrotation Yrotation
      JOINT Spine1
      {
        OFFSET 0.00746153 9.71731 0.0172653
        CHANNELS 3 Zrotation Xrotation Yrotation
        JOINT Spine2
        {
          OFFSET 0.0283815 10.1155 -0.00252583
          CHANNELS 3 Zrotation Xrotation Yrotation
          JOINT Spine3
          {
            OFFSET 0.0279172 9.71841 -0.00465252
            CHANNELS 3 Zrotation Xrotation Yrotation
            JOINT Neck
            {
              OFFSET 0.0182001 10.3765 0.0184284
              CHANNELS 3 Zrotation Xrotation Yrotation
              JOINT Head
              {
                OFFSET 0.0113688 9.47343 0.00632939
                CHANNELS 3 Zrotation Xrotation Yrotation
                End Site
                {
                  OFFSET 0 15.95 0
                }
              }
            }
            JOINT RightShoulder
            {
              OFFSET -3.17351 6.93492 0.00767284
              CHANNELS 3 Zrotation Xrotation Yrotation
              JOINT RightArm
              {
                OFFSET -12.7835 -0.0133269 0.0174019
                CHANNELS 3 Zrotation Xrotation Yrotation
                JOINT RightForeArm
                {
                  OFFSET -26.5112 -0.0170228 0.0247955
                  CHANNELS 3 Zrotation Xrotation Yrotation
                  JOINT RightHand
                  {
                    OFFSET -25.9918 -0.0199622 0.0218897
                    CHANNELS 3 Zrotation Xrotation Yrotation
                    JOINT RightHandThumb1
                    {
                      OFFSET -2.48905 0.190105 3.12053
                      CHANNELS 3 Zrotation Xrotation Yrotation
                      JOINT RightHandThumb2
                      {
                        OFFSET -3.68274 0 0
                        CHANNELS 3 Zrotation Xrotation Yrotation
                        JOINT RightHandThumb3
                        {
                          OFFSET -2.55832 0 0
                          CHANNELS 3 Zrotation Xrotation Yrotation
                          End Site
                          {
                            OFFSET -2.194 0 0
                          }
                        }
                      }
                    }
                    JOINT RightInHandIndex
                    {
                      OFFSET -3.22368 0.508421 1.97842
                      CHANNELS 3 Zrotation Xrotation Yrotation
                      JOINT RightHandIndex1
                      {
                        OFFSET -5.21684 -0.091368 0.999158
                        CHANNELS 3 Zrotation Xrotation Yrotation
                        JOINT RightHandIndex2
                        {
                          OFFSET -3.61937 0 0
                          CHANNELS 3 Zrotation Xrotation Yrotation
                          JOINT RightHandIndex3
                          {
                            OFFSET -2.0521 0 0
                            CHANNELS 3 Zrotation Xrotation Yrotation
                            End Site
                            {
                              OFFSET -1.805 0 0
                            }
                          }
                        }
                      }
                    }
                    JOINT RightInHandMiddle
                    {
                      OFFSET -3.38211 0.517263 0.756737
                      CHANNELS 3 Zrotation Xrotation Yrotation
                      JOINT RightHandMiddle1
                      {
                        OFFSET -5.17411 -0.084 0.313895
                        CHANNELS 3 Zrotation Xrotation Yrotation
                        JOINT RightHandMiddle2
                        {
                          OFFSET -3.94947 0 0
                          CHANNELS 3 Zrotation Xrotation Yrotation
                          JOINT RightHandMiddle3
                          {
                            OFFSET -2.47579 0 0
                            CHANNELS 3 Zrotation Xrotation Yrotation
                            End Site
                            {
                              OFFSET -1.975 0 0
                            }
                          }
                        }
                      }
                    }
                    JOINT RightInHandRing
                    {
                      OFFSET -3.36516 0.537895 -0.128947
                      CHANNELS 3 Zrotation Xrotation Yrotation
                      JOINT RightHandRing1
                      {
                        OFFSET -4.63474 -0.022105 -0.478947
                        CHANNELS 3 Zrotation Xrotation Yrotation
                        JOINT RightHandRing2
                        {
                          OFFSET -3.44238 0 0
                          CHANNELS 3 Zrotation Xrotation Yrotation
                          JOINT RightHandRing3
                          {
                            OFFSET -2.3881 0 0
                            CHANNELS 3 Zrotation Xrotation Yrotation
                            End Site
                            {
                              OFFSET -1.857 0 0
                            }
                          }
                        }
                      }
                    }
                    JOINT RightInHandPinky
                    {
                      OFFSET -3.16105 0.469368 -1.20179
                      CHANNELS 3 Zrotation Xrotation Yrotation
                      JOINT RightHandPinky1
                      {
                        OFFSET -4.14105 -0.022105 -1.09053
                        CHANNELS 3 Zrotation Xrotation Yrotation
                        JOINT RightHandPinky2
                        {
                          OFFSET -2.75653 0 0
                          CHANNELS 3 Zrotation Xrotation Yrotation
                          JOINT RightHandPinky3
                          {
                            OFFSET -1.74189 0 0
                            CHANNELS 3 Zrotation Xrotation Yrotation
                            End Site
                            {
                              OFFSET -1.645 0 0
                            }
                          }
                        }
                      }
                    }
                  }
                }
              }
            }
            JOINT LeftShoulder
            {
              OFFSET 3.23633 6.91116 -0.0162332
              CHANNELS 3 Zrotation Xrotation Yrotation
              JOINT LeftArm
              {
                OFFSET 12.8112 -0.0136289 -0.0286256
                CHANNELS 3 Zrotation Xrotation Yrotation
                JOINT LeftForeArm
                {
                  OFFSET 26.502 -0.0235899 -0.00806802
                  CHANNELS 3 Zrotation Xrotation Yrotation
                  JOINT LeftHand
                  {
                    OFFSET 25.9974 -0.0321613 -0.027004
                    CHANNELS 3 Zrotation Xrotation Yrotation
                    JOINT LeftHandThumb1
                    {
                      OFFSET 2.48905 0.190105 3.12053
                      CHANNELS 3 Zrotation Xrotation Yrotation
                      JOINT LeftHandThumb2
                      {
                        OFFSET 3.68274 0 0
                        CHANNELS 3 Zrotation Xrotation Yrotation
                        JOINT LeftHandThumb3
                        {
                          OFFSET 2.55832 0 0
                          CHANNELS 3 Zrotation Xrotation Yrotation
                          End Site
                          {
                            OFFSET 2.194 0 0
                          }
                        }
                      }
                    }
                    JOINT LeftInHandIndex
                    {
                      OFFSET 3.22368 0.508421 1.97842
                      CHANNELS 3 Zrotation Xrotation Yrotation
                      JOINT LeftHandIndex1
                      {
                        OFFSET 5.21684 -0.091368 0.999158
                        CHANNELS 3 Zrotation Xrotation Yrotation
                        JOINT LeftHandIndex2
                        {
                          OFFSET 3.61937 0 0
                          CHANNELS 3 Zrotation Xrotation Yrotation
                          JOINT LeftHandIndex3
                          {
                            OFFSET 2.0521 0 0
                            CHANNELS 3 Zrotation Xrotation Yrotation
                            End Site
                            {
                              OFFSET 1.805 0 0
                            }
                          }
                        }
                      }
                    }
                    JOINT LeftInHandMiddle
                    {
                      OFFSET 3.38211 0.517263 0.756737
                      CHANNELS 3 Zrotation Xrotation Yrotation
                      JOINT LeftHandMiddle1
                      {
                        OFFSET 5.17411 -0.084 0.313895
                        CHANNELS 3 Zrotation Xrotation Yrotation
                        JOINT LeftHandMiddle2
                        {
                          OFFSET 3.94947 0 0
                          CHANNELS 3 Zrotation Xrotation Yrotation
                          JOINT LeftHandMiddle3
                          {
                            OFFSET 2.47579 0 0
                            CHANNELS 3 Zrotation Xrotation Yrotation
                            End Site
                            {
                              OFFSET 1.975 0 0
                            }
                          }
                        }
                      }
                    }
                    JOINT LeftInHandRing
                    {
                      OFFSET 3.36516 0.537895 -0.128947
                      CHANNELS 3 Zrotation Xrotation Yrotation
                      JOINT LeftHandRing1
                      {
                        OFFSET 4.63474 -0.022105 -0.478947
                        CHANNELS 3 Zrotation Xrotation Yrotation
                        JOINT LeftHandRing2
                        {
                          OFFSET 3.44238 0 0
                          CHANNELS 3 Zrotation Xrotation Yrotation
                          JOINT LeftHandRing3
                          {
                            OFFSET 2.3881 0 0
                            CHANNELS 3 Zrotation Xrotation Yrotation
                            End Site
                            {
                              OFFSET 1.857 0 0
                            }
                          }
                        }
                      }
                    }
                    JOINT LeftInHandPinky
                    {
                      OFFSET 3.16105 0.469368 -1.20179
                      CHANNELS 3 Zrotation Xrotation Yrotation
                      JOINT LeftHandPinky1
                      {
                        OFFSET 4.14105 -0.022105 -1.09053
                        CHANNELS 3 Zrotation Xrotation Yrotation
                        JOINT LeftHandPinky2
                        {
                          OFFSET 2.75653 0 0
                          CHANNELS 3 Zrotation Xrotation Yrotation
                          JOINT LeftHandPinky3
                          {
                            OFFSET 1.74189 0 0
                            CHANNELS 3 Zrotation Xrotation Yrotation
                            End Site
                            {
                              OFFSET 1.645 0 0
                            }
                          }
                        }
                      }
                    }
                  }
                }
              }
            }
          }
        }
      }
    }
  }
}
MOTION
Frames: 2
Frame Time: 0.00833333
7.500000000000000000e+02 0.000000000000000000e+00 0.000000000000000000e+00 0.000000000000000000e+00 0.000000000000000000e+00 0.000000000000000000e+00 -3.171666397327014053e+00 -9.567477989072967759e+00 -1.902405405782733538e+01 2.050763667968247717e+01 1.703570362837948338e+01 2.189630146054310700e+01 -2.023051303110829480e+00 -8.626461798562884198e+00 4.988426699437868983e+00 -6.495398794765462114e+00 9.952829989059125637e+00 1.159213714940250561e+01 1.069663893375346042e+01 2.364001069258571164e+01 1.497475441875102931e+01 -1.537913749590808798e+01 -7.732000927710535043e-01 1.070588500103113638e+01 2.996730710779289542e+00 -8.528542976698949118e+00 4.851167185568876050e+00 -6.630223562359468303e+00 -8.232659449133764795e+00 7.136952068604539789e+00 -1.561066595799903034e+00 -2.633425858287517407e+00 1.846736653359186020e+00 -2.602618913306793846e+00 -4.543313447026289253e+00 2.808739387778217633e+00 1.496238647513750686e-02 9.195814733603297972e-03 3.474906156474830143e-01 6.312654520261441471e-01 -1.876631915761979297e+00 1.146603983880729594e+01 1.026289605615328393e-01 7.621623834368363326e+00 -1.700130793694092812e+00 -3.422246824094105744e+00 7.217675255231443820e+00 1.249468188151004355e+00 -3.673355336580440422e+01 -1.437255564104728123e+01 -9.723597815938903821e+00 -1.065462466143906006e+01 -2.090047115073999429e+00 1.905289054776209667e+01 3.900322827542033188e+00 6.260922914530902439e+00 -1.276207108862594453e+01 0.000000000000000000e+00 0.000000000000000000e+00 0.000000000000000000e+00 4.808261689848918789e-16 -2.403525062726019625e-15 0.000000000000000000e+00 7.145367331840716275e-15 -4.044765954188029010e-15 0.000000000000000000e+00 6.032737617836873310e-16 -1.362123713944034200e-15 1.323599431182697499e-15 0.000000000000000000e+00 0.000000000000000000e+00 0.000000000000000000e+00 0.000000000000000000e+00 -4.437638566329791826e-15 -7.403248604425620910e-15 0.000000000000000000e+00 6.681505603165603341e-15 -1.224761899455415061e-15 6.032737617836873310e-16 -1.362123713944034200e-15 1.323599431182697499e-15 0.000000000000000000e+00 -4.702679099343520102e-18 -1.742056664113810580e-15 0.000000000000000000e+00 -2.067231347746921669e-16 -5.827049141243483072e-15 0.000000000000000000e+00 -8.225681981939198210e-16 -1.499708654363621286e-15 6.032737617836873310e-16 -1.362123713944034200e-15 1.323599431182697499e-15 0.000000000000000000e+00 0.000000000000000000e+00 0.000000000000000000e+00 0.000000000000000000e+00 -3.480437742172552734e-15 -7.339836495016607502e-15 0.000000000000000000e+00 1.627577827097999549e-15 -1.501923717090839028e-15 6.032737617836873310e-16 -1.362123713944034200e-15 1.323599431182697499e-15 0.000000000000000000e+00 0.000000000000000000e+00 0.000000000000000000e+00 0.000000000000000000e+00 -3.735528112519138676e-15 -1.198578335233597479e-14 0.000000000000000000e+00 -1.016928317388575810e-15 -3.976979826246450934e-15 -4.951431778477308754e+00 2.637279685554206221e+00 -3.065668536701086300e+00 6.949365284851447555e-01 -1.453224026469744068e+01 -6.026508278574929989e+00 3.596356926241194074e+00 -7.003655589590952246e+00 -4.024887982529355668e+01 4.151876976887887594e+00 2.712211259736139191e+00 -8.971301156044145131e+00 0.000000000000000000e+00 0.000000000000000000e+00 0.000000000000000000e+00 -2.966276587720298456e-15 9.896774655775825112e-17 0.000000000000000000e+00 -2.874937497953858686e-15 5.269926938058548412e-15 0.000000000000000000e+00 1.803665905153657461e-17 -5.469340015957339350e-16 -1.214473188537746333e-15 0.000000000000000000e+00 0.000000000000000000e+00 0.000000000000000000e+00 0.000000000000000000e+00 3.940509131767536109e-16 4.305240715999846084e-15 0.000000000000000000e+00 5.520304907431921000e-16 4.784379563815988345e-15 1.803665905153657461e-17 -5.469340015957339350e-16 -1.214473188537746333e-15 0.000000000000000000e+00 5.357859743943180796e-17 -1.456604223111636866e-15 0.000000000000000000e+00 -1.816357123181616765e-15 2.262021970314810784e-15 0.000000000000000000e+00 5.687938278296588785e-16 4.015347252035332685e-15 1.803665905153657461e-17 -5.469340015957339350e-16 -1.214473188537746333e-15 0.000000000000000000e+00 0.000000000000000000e+00 0.000000000000000000e+00 0.000000000000000000e+00 1.344117793002347453e-15 -3.429469401937113922e-16 0.000000000000000000e+00 -1.629566686997967516e-15 5.836737628267397865e-15 1.803665905153657461e-17 -5.469340015957339350e-16 -1.214473188537746333e-15 0.000000000000000000e+00 0.000000000000000000e+00 0.000000000000000000e+00 0.000000000000000000e+00 -1.488566775782995563e-15 -9.149617511915184493e-16 0.000000000000000000e+00 -6.303777049544419209e-16 1.991188014747736759e-15
7.500000000000000000e+02 0.000000000000000000e+00 0.000000000000000000e+00 0.000000000000000000e+00 0.000000000000000000e+00 0.000000000000000000e+00 -3.001867587402730742e+00 -9.499932158258181047e+00 -1.960924800874658658e+01 2.107764287625176181e+01 1.659211120859961142e+01 2.227467449932476740e+01 -2.079940092120572626e+00 -8.551460546216880232e+00 5.217334684515635423e+00 -6.346569700315174423e+00 1.015401208517300269e+01 1.165850954808169782e+01 1.138911701670629029e+01 2.357909993189020170e+01 1.535180480344507181e+01 -1.582129587543968086e+01 -5.796389369890766474e-01 1.099316442464917110e+01 3.040982336396020447e+00 -8.729052773327030224e+00 5.189711305803118790e+00 -6.644532645775028001e+00 -8.335458894733569934e+00 7.061834602436034558e+00 -1.567675686283978020e+00 -2.653085772564592659e+00 1.822524593655276304e+00 -2.611564806655600979e+00 -4.578199587433427808e+00 2.765071345085467147e+00 4.031475232257638111e-03 3.454628543989548238e-03 3.838638529144217104e-01 5.966829477946620219e-01 -1.872897351706748204e+00 1.157173351300354724e+01 -1.140984397255607186e-01 7.480252168429187165e+00 -1.062757471839497869e+00 -3.352060505978657901e+00 7.378783429543354089e+00 1.004724178679303526e+00 -3.640491858924921331e+01 -1.488174302615695943e+01 -9.868188823438655888e+00 -1.023599187487231355e+01 -2.169688371017175488e+00 2.010959754024232282e+01 3.956925285912780588e+00 6.319946712679635148e+00 -1.253223210349887040e+01 0.000000000000000000e+00 0.000000000000000000e+00 0.000000000000000000e+00 2.950812509052921169e-16 -2.154554823065842624e-15 0.000000000000000000e+00 6.968574119939158708e-15 -4.059198846589013942e-15 0.000000000000000000e+00 7.411475027585466761e-16 -1.346916257892575532e-15 1.325354542723138281e-15 0.000000000000000000e+00 0.000000000000000000e+00 0.000000000000000000e+00 0.000000000000000000e+00 -4.407932898826239748e-15 -7.148400463701941876e-15 0.000000000000000000e+00 6.259804479478874991e-15 -1.095852673091320432e-15 7.411475027585466761e-16 -1.346916257892575532e-15 1.325354542723138281e-15 0.000000000000000000e+00 1.849712525408725573e-16 -1.782828589496085986e-15 0.000000000000000000e+00 -1.789729607648820351e-16 -5.789514803891168829e-15 0.000000000000000000e+00 -8.638008638957291314e-16 -1.474973155829093016e-15 7.411475027585466761e-16 -1.346916257892575532e-15 1.325354542723138281e-15 0.000000000000000000e+00 0.000000000000000000e+00 0.000000000000000000e+00 0.000000000000000000e+00 -3.535638329453534657e-15 -7.072823874530787616e-15 0.000000000000000000e+00 1.626851258296233371e-15 -1.453933887032936394e-15 7.411475027585466761e-16 -1.346916257892575532e-15 1.325354542723138281e-15 0.000000000000000000e+00 0.000000000000000000e+00 0.000000000000000000e+00 0.000000000000000000e+00 -3.478250732554667995e-15 -1.183786632424766639e-14 0.000000000000000000e+00 -8.231873960910896372e-16 -4.001448506668966829e-15 -5.025566805016527638e+00 2.747773528080339034e+00 -3.281494850097088634e+00 1.286496681294531541e+00 -1.442343490430790531e+01 -6.278299216929644544e+00 4.480749072104860176e+00 -6.367080021752656194e+00 -3.957321897802096800e+01 4.100586224985278250e+00 2.724362449203647341e+00 -8.846212178263771264e+00 0.000000000000000000e+00 0.000000000000000000e+00 0.000000000000000000e+00 -3.129762945080777839e-15 1.978535420488383230e-16 0.000000000000000000e+00 -3.055399293766277591e-15 5.441198626184291235e-15 0.000000000000000000e+00 1.564974592823207434e-16 -3.538213290059927652e-16 -1.218682492314373396e-15 0.000000000000000000e+00 0.000000000000000000e+00 0.000000000000000000e+00 0.000000000000000000e+00 2.429955002376998401e-17 4.217495094787311755e-15 0.000000000000000000e+00 7.709364690808911628e-16 4.538141647911905416e-15 1.564974592823207434e-16 -3.538213290059927652e-16 -1.218682492314373396e-15 0.000000000000000000e+00 4.504186084806473605e-17 -1.561573900267159912e-15 0.000000000000000000e+00 -1.800096602186375749e-15 2.223162215915658477e-15 0.000000000000000000e+00 3.391461899389080422e-16 3.833071407923518047e-15 1.564974592823207434e-16 -3.538213290059927652e-16 -1.218682492314373396e-15 0.000000000000000000e+00 0.000000000000000000e+00 0.000000000000000000e+00 0.000000000000000000e+00 1.311352877894362585e-15 -5.616719580668345798e-16 0.000000000000000000e+00 -1.836431683364450185e-15 5.446736854393799449e-15 1.564974592823207434e-16 -3.538213290059927652e-16 -1.218682492314373396e-15 0.000000000000000000e+00 0.000000000000000000e+00 0.000000000000000000e+00 0.000000000000000000e+00 -1.550529031005355843e-15 -9.186031669184010555e-16 0.000000000000000000e+00 -4.142319801663920311e-16 1.955791561162634927e-15
